# xmcd
#
# Track frame offsets: 
#        150
#        25002
#        45737
#        70917
#        98727
#        116155
#        135222
#        156055
#        180345
#        200667
#        225325
#        244080
#
# Disc length: 3549 seconds
#
# Revision: 0
# Processed by: cddbd v1.5.2PL0 Copyright (c) Steve Scherf et al.
# Submitted via: ExactAudioCopy v1.0b3
#
DISCID=910ddb0c
DTITLE=Che Linh, Giang Thu - Loi Lu Khach
DYEAR=1993
DGENRE=
TTITLE0=Bai ca ky niem
TTITLE1=Che Linh - Tinh chet theo dan
TTITLE2=Mua buon tinh le
TTITLE3=Che Linh - Cam on
TTITLE4=Tuyet lanh
TTITLE5=Che Linh - Loi lu khach
TTITLE6=Phan gai thuyen quyen
TTITLE7=Che Linh - Chuyen xe ba nguoi
TTITLE8=Ngay ay minh yeu nhau
TTITLE9=Che Linh - Ngay vui qua mau
TTITLE10=Thoang giac mo qua
TTITLE11=Che Linh - Tinh vo canh bay
EXTD=
EXTT0=
EXTT1=
EXTT2=
EXTT3=
EXTT4=
EXTT5=
EXTT6=
EXTT7=
EXTT8=
EXTT9=
EXTT10=
EXTT11=
PLAYORDER=
